<svg xmlns="http://www.w3.org/2000/svg" xmlns:xlink="http://www.w3.org/1999/xlink" viewBox="0 0 34.64 40"><defs><style>.cls-1{fill:url(#linear-gradient);}.cls-2{fill:url(#linear-gradient-2);}.cls-3{fill:#0c4381;}.cls-3,.cls-5{opacity:0.45;}.cls-4{fill:#00a2aa;}.cls-5{fill:#fff;}</style><linearGradient id="linear-gradient" x1="17.32" y1="40" x2="17.32" gradientUnits="userSpaceOnUse"><stop offset="0" stop-color="#1595cf"/><stop offset="1" stop-color="#21d8df"/></linearGradient><linearGradient id="linear-gradient-2" x1="25.98" y1="40" x2="25.98" gradientUnits="userSpaceOnUse"><stop offset="0" stop-color="#2869b6"/><stop offset="1" stop-color="#34a4c8"/></linearGradient></defs><title>bpsaa_tn2</title><g id="Layer_2" data-name="Layer 2"><g id="Ñëîé_1" data-name="Ñëîé 1"><polygon class="cls-1" points="34.64 30 34.64 10 17.32 0 0 10 0 30 17.32 40 34.64 30"/><polygon class="cls-2" points="34.64 30 34.64 10 17.32 0 17.32 40 34.64 30"/><polygon class="cls-3" points="34.64 30 17.32 19.91 0 30 17.32 40 34.64 30"/><path class="cls-4" d="M13.85,9.18a7.55,7.55,0,0,1,7,0l.18.68a6,6,0,0,1,.72-.12,3.05,3.05,0,0,1,.55.36,11.08,11.08,0,0,1,3,3.75c-.08.2-.16.41-.25.6l.61.21a14.23,14.23,0,0,1,1,4.86l-.47.49a4.06,4.06,0,0,1,.45.48,14.15,14.15,0,0,1-1,4.85l-.62.21.26.62a10.56,10.56,0,0,1-3.47,4.09,3.32,3.32,0,0,1-.77-.1l-.18.67a7.62,7.62,0,0,1-4.17.82,7.81,7.81,0,0,1-2.79-.82c-.05-.23-.11-.45-.17-.67-.27,0-.55.17-.82.08a10.85,10.85,0,0,1-3.44-4.07l.26-.63A2.25,2.25,0,0,1,9,25.28a14.2,14.2,0,0,1-1-4.8c.14-.17.31-.33.46-.48-.16-.16-.32-.32-.46-.48a14.61,14.61,0,0,1,1-4.85l.62-.21a3.32,3.32,0,0,1-.24-.62,10.67,10.67,0,0,1,3.31-4c.26-.24.62,0,.93,0,.05-.23.11-.45.17-.67m.42.85c-.06.19-.11.37-.16.56l-.62-.11a9.7,9.7,0,0,0-3.14,3.65c-.18.24.07.49.13.74l-.56.18A13.27,13.27,0,0,0,9,19.58a1.9,1.9,0,0,0,.38.42L9,20.4A13.39,13.39,0,0,0,9.93,25a5.22,5.22,0,0,0,.56.18c-.07.19-.14.37-.22.55a9.73,9.73,0,0,0,3.08,3.74c.22.18.51,0,.76,0,.05.19.11.37.16.57a9.79,9.79,0,0,0,1.27.49A6.67,6.67,0,0,0,20.4,30c0-.19.1-.37.15-.55.25,0,.55.19.78,0a9.87,9.87,0,0,0,3.08-3.73c-.08-.18-.17-.36-.24-.54l.55-.17a13.24,13.24,0,0,0,1-4.57l-.39-.4a2.19,2.19,0,0,0,.38-.42,12.77,12.77,0,0,0-.94-4.52,2.79,2.79,0,0,0-.55-.2c.07-.19.15-.37.22-.55a9.76,9.76,0,0,0-3.08-3.72c-.22-.19-.52,0-.77,0-.06-.19-.12-.38-.17-.57a7.55,7.55,0,0,0-2-.65,6.74,6.74,0,0,0-4.11.65Z"/><path class="cls-4" d="M14.61,10.33a6.3,6.3,0,0,1,5.43,0l.12.49c-.28.38-.55.78-.83,1.16a.59.59,0,0,1-.54.24h-3a.58.58,0,0,1-.49-.29c-.26-.38-.53-.74-.78-1.11A3.39,3.39,0,0,1,14.61,10.33Z"/><path class="cls-4" d="M10.73,14.27a9.47,9.47,0,0,1,2.83-3.33A2.42,2.42,0,0,1,14,11c.3.41.59.83.88,1.25,0,.14,0,.31-.08.43l-1.27,1.8a.57.57,0,0,1-.49.26H10.91Z"/><path class="cls-4" d="M20.62,11l.48-.08a9.32,9.32,0,0,1,2.82,3.35c-.06.16-.12.31-.17.47H21.62a.53.53,0,0,1-.48-.25l-1.29-1.82c-.11-.14-.05-.32-.06-.48C20.07,11.8,20.36,11.41,20.62,11Z"/><path class="cls-4" d="M15.28,12.87a.57.57,0,0,1,.5-.29h3.09a.56.56,0,0,1,.47.26l1.24,1.76a.54.54,0,0,1,0,.68c-.42.58-.83,1.17-1.24,1.76a.57.57,0,0,1-.54.24h-3a.5.5,0,0,1-.46-.23c-.45-.64-.92-1.28-1.36-1.93v-.36c.44-.64.89-1.26,1.32-1.89Z"/><path class="cls-4" d="M10.26,15.32a2.35,2.35,0,0,1,.81-.2h2a.62.62,0,0,1,.53.32c.39.57.8,1.14,1.2,1.72a.51.51,0,0,1,0,.63c-.33.47-.67.94-1,1.41-.18.23-.31.51-.6.62-1.15,0-2.29,0-3.43,0l-.36-.4A13,13,0,0,1,10.26,15.32Z"/><path class="cls-4" d="M21.12,15.38a.57.57,0,0,1,.49-.26h2a2.48,2.48,0,0,1,.8.2,13.26,13.26,0,0,1,.85,4.08l-.39.41H21.61a.52.52,0,0,1-.48-.23c-.44-.65-.9-1.27-1.34-1.92a.57.57,0,0,1,.1-.52l1.23-1.76Z"/><path class="cls-4" d="M15.28,18a.56.56,0,0,1,.5-.29h3a.59.59,0,0,1,.56.24c.44.65.9,1.28,1.35,1.92v.35c-.45.64-.91,1.28-1.36,1.94a.59.59,0,0,1-.55.23h-3a.61.61,0,0,1-.53-.34c-.42-.61-.86-1.21-1.28-1.82v-.36c.43-.63.88-1.25,1.31-1.87Z"/><path class="cls-4" d="M9.77,20.2c1.09,0,2.18,0,3.28,0a.55.55,0,0,1,.49.26c.41.59.82,1.18,1.24,1.76.13.14.09.33.1.51-.45.62-.9,1.26-1.34,1.88a.56.56,0,0,1-.49.27h-2a2.4,2.4,0,0,1-.83-.2,12.81,12.81,0,0,1-.84-4.1l.37-.37Z"/><path class="cls-4" d="M21.13,20.44a.54.54,0,0,1,.5-.25h3.09c.24,0,.36.25.54.39a13.61,13.61,0,0,1-.84,4.09,2.37,2.37,0,0,1-.81.21h-2a.55.55,0,0,1-.5-.26c-.46-.63-.89-1.28-1.35-1.91,0-.17,0-.36.11-.5.4-.59.82-1.18,1.23-1.77Z"/><path class="cls-4" d="M15.32,23a.56.56,0,0,1,.46-.24H18.9a.56.56,0,0,1,.45.24l1.27,1.82c.12.13.07.3.09.46-.46.63-.9,1.28-1.36,1.91a.57.57,0,0,1-.55.25h-3a.55.55,0,0,1-.5-.29c-.44-.63-.89-1.25-1.32-1.87,0-.12,0-.24,0-.36Z"/><path class="cls-4" d="M10.91,25.26h2.14a.55.55,0,0,1,.48.26c.41.59.82,1.18,1.24,1.76a.53.53,0,0,1,0,.63L14,29c-.19,0-.42.12-.58,0a9.07,9.07,0,0,1-2.69-3.24A2.48,2.48,0,0,1,10.91,25.26Z"/><path class="cls-4" d="M21.13,25.51a.54.54,0,0,1,.5-.25c.7,0,1.4,0,2.11,0a3.71,3.71,0,0,1,.19.46,9.45,9.45,0,0,1-2.84,3.34c-.18-.05-.43,0-.54-.19s-.46-.66-.69-1a.57.57,0,0,1,.05-.7C20.33,26.65,20.73,26.08,21.13,25.51Z"/><path class="cls-4" d="M15.33,28a.54.54,0,0,1,.45-.24h3a.61.61,0,0,1,.53.24c.28.38.55.79.83,1.17,0,.16-.08.31-.12.47a6.28,6.28,0,0,1-5.42,0l-.13-.47c.29-.39.56-.79.84-1.18Z"/><polygon id="top" class="cls-5" points="34.64 10 17.32 0 0 10 17.32 19.91 34.64 10"/></g></g></svg>