<svg xmlns="http://www.w3.org/2000/svg" xmlns:xlink="http://www.w3.org/1999/xlink" viewBox="0 0 34.64 40"><defs><style>.cls-1,.cls-6{fill:none;}.cls-2{fill:url(#linear-gradient);}.cls-3{fill:url(#linear-gradient-2);}.cls-4{fill:#0c4381;}.cls-17,.cls-4{opacity:0.45;}.cls-5{fill:#142d51;}.cls-6{stroke:#00b6fa;stroke-miterlimit:10;stroke-width:0.64px;}.cls-7{clip-path:url(#clip-path);}.cls-8{fill:url(#linear-gradient-3);}.cls-9{clip-path:url(#clip-path-2);}.cls-10{fill:url(#linear-gradient-4);}.cls-11{clip-path:url(#clip-path-3);}.cls-12{fill:url(#linear-gradient-5);}.cls-13{clip-path:url(#clip-path-4);}.cls-14{fill:url(#linear-gradient-6);}.cls-15{clip-path:url(#clip-path-5);}.cls-16{fill:url(#linear-gradient-7);}.cls-17{fill:#fff;}</style><linearGradient id="linear-gradient" x1="17.32" y1="40" x2="17.32" gradientUnits="userSpaceOnUse"><stop offset="0" stop-color="#1595cf"/><stop offset="1" stop-color="#21d8df"/></linearGradient><linearGradient id="linear-gradient-2" x1="25.98" y1="40" x2="25.98" gradientUnits="userSpaceOnUse"><stop offset="0" stop-color="#2869b6"/><stop offset="1" stop-color="#34a4c8"/></linearGradient><clipPath id="clip-path"><path id="SVGID" class="cls-1" d="M23.32,21.27c-.1.57-2,4.63-5.7,5.28-1.49.26-1.7.68-1.34,1.07a5.24,5.24,0,0,0,.95.16,8.74,8.74,0,0,0,6.28-4.29,6.47,6.47,0,0,0,.7-1.91c-.23-.29-.49-.55-.68-.55s-.15,0-.21.24"/></clipPath><linearGradient id="linear-gradient-3" x1="-177.67" y1="130.77" x2="-177.3" y2="130.77" gradientTransform="translate(4134.1 -3006.58) scale(23.18)" gradientUnits="userSpaceOnUse"><stop offset="0" stop-color="#01aae4"/><stop offset="1" stop-color="#1f96f4"/></linearGradient><clipPath id="clip-path-2"><rect id="SVGID-2" data-name="SVGID" class="cls-1" x="11.76" y="11.95" width="11.51" height="1.18"/></clipPath><linearGradient id="linear-gradient-4" x1="-178.95" y1="126.77" x2="-178.57" y2="126.77" gradientTransform="translate(5474.86 -3857.7) scale(30.53)" xlink:href="#linear-gradient-3"/><clipPath id="clip-path-3"><path id="SVGID-3" data-name="SVGID" class="cls-1" d="M10,12v4.32l12.09,9.05a8.67,8.67,0,0,0,1.41-1.83,7.18,7.18,0,0,0,.89-3L12.91,12Z"/></clipPath><linearGradient id="linear-gradient-5" x1="-181.55" y1="118.01" x2="-181.17" y2="118.01" gradientTransform="translate(12390.08 -8032.35) scale(68.22)" xlink:href="#linear-gradient-3"/><clipPath id="clip-path-4"><path id="SVGID-4" data-name="SVGID" class="cls-1" d="M14.71,12l9.71,7.28v-7.3H14.71Z"/></clipPath><linearGradient id="linear-gradient-6" x1="-181.94" y1="117.34" x2="-181.57" y2="117.34" gradientTransform="translate(14290.78 -9195.05) scale(78.5)" xlink:href="#linear-gradient-3"/><clipPath id="clip-path-5"><path id="SVGID-5" data-name="SVGID" class="cls-1" d="M10,18.05c0,1.25-.11,3.64,1,5.44a8.61,8.61,0,0,0,6.28,4.29,7.87,7.87,0,0,0,4-1.7L10,17.68Z"/></clipPath><linearGradient id="linear-gradient-7" x1="-181.77" y1="116.63" x2="-181.39" y2="116.63" gradientTransform="translate(14932.78 -9561.67) scale(82.18)" xlink:href="#linear-gradient-3"/></defs><title>bpsaa_sent2</title><g id="Layer_2" data-name="Layer 2"><g id="Ñëîé_1" data-name="Ñëîé 1"><polygon class="cls-2" points="34.64 30 34.64 10 17.32 0 0 10 0 30 17.32 40 34.64 30"/><polygon class="cls-3" points="34.64 30 34.64 10 17.32 0 17.32 40 34.64 30"/><polygon class="cls-4" points="34.64 30 17.32 19.91 0 30 17.32 40 34.64 30"/><path class="cls-5" d="M27.2,9.1v8.29c0,1.73.15,4.95-1.31,7.44a12,12,0,0,1-8.66,5.86A12.07,12.07,0,0,1,8.57,24.8c-1.47-2.46-1.31-5.7-1.31-7.43V9.1Z"/><path class="cls-6" d="M27.22,9.1v8.32c0,1.73.16,5-1.33,7.43a12,12,0,0,1-8.66,5.86,12,12,0,0,1-8.69-5.86c-1.47-2.48-1.31-5.7-1.31-7.43V9.1Z"/><g class="cls-7"><rect class="cls-8" x="15.92" y="21.03" width="8.27" height="6.78"/></g><g class="cls-9"><rect class="cls-10" x="11.76" y="11.95" width="11.51" height="1.18"/></g><g class="cls-11"><rect class="cls-12" x="9.98" y="11.95" width="14.36" height="13.37"/></g><g class="cls-13"><rect class="cls-14" x="14.71" y="11.95" width="9.73" height="7.27"/></g><g class="cls-15"><rect class="cls-16" x="9.87" y="17.68" width="11.33" height="10.13"/></g><polygon id="top" class="cls-17" points="34.64 10 17.32 0 0 10 17.32 19.91 34.64 10"/></g></g></svg>