<svg xmlns="http://www.w3.org/2000/svg" xmlns:xlink="http://www.w3.org/1999/xlink" viewBox="0 0 34.64 40"><defs><style>.cls-1{fill:url(#linear-gradient);}.cls-2{fill:url(#linear-gradient-2);}.cls-3{fill:#7eb4bf;}.cls-3,.cls-5{opacity:0.45;}.cls-4{fill:url(#linear-gradient-3);}.cls-5{fill:#fff;}</style><linearGradient id="linear-gradient" x1="17.32" y1="40" x2="17.32" gradientUnits="userSpaceOnUse"><stop offset="0" stop-color="#fff"/><stop offset="1" stop-color="#fff"/></linearGradient><linearGradient id="linear-gradient-2" x1="25.98" y1="40" x2="25.98" gradientUnits="userSpaceOnUse"><stop offset="0" stop-color="#cbe3e8"/><stop offset="1" stop-color="#cbe3e8"/></linearGradient><linearGradient id="linear-gradient-3" x1="6.32" y1="155.87" x2="28.32" y2="155.87" gradientTransform="matrix(1, 0, 0, -1, 0, 175.16)" gradientUnits="userSpaceOnUse"><stop offset="0" stop-color="#b38c30"/><stop offset="1" stop-color="#f2de98"/></linearGradient></defs><title>Asset 20</title><g id="Layer_2" data-name="Layer 2"><g id="Ñëîé_1" data-name="Ñëîé 1"><polygon class="cls-1" points="34.64 30 34.64 10 17.32 0 0 10 0 30 17.32 40 34.64 30"/><polygon class="cls-2" points="34.64 30 34.64 10 17.32 0 17.32 40 34.64 30"/><polygon class="cls-3" points="34.64 30 17.32 19.91 0 30 17.32 40 34.64 30"/><path class="cls-4" d="M17.32,8.3a11,11,0,1,0,11,11A11,11,0,0,0,17.32,8.3Zm-5,8.15A2.45,2.45,0,0,1,14.83,14h5.63a2.48,2.48,0,0,1,1.73.7L19.3,16.15h-4a.76.76,0,0,0-.8.72v1.76l-2.17,1.13V16.45Zm10.55,3.67a2.46,2.46,0,0,1-2.46,2.46H14.52v2.1a.77.77,0,0,1-.58.72H12.36V21.77l2.82-1.48h4.75a.78.78,0,0,0,.82-.72V17.41l2.16-1.08v3.79Z"/><polygon id="top" class="cls-5" points="34.64 10 17.32 0 0 10 17.32 19.91 34.64 10"/></g></g></svg>