<svg xmlns="http://www.w3.org/2000/svg" xmlns:xlink="http://www.w3.org/1999/xlink" viewBox="0 0 34.64 40"><defs><style>.cls-1,.cls-6{fill:none;}.cls-2{fill:url(#linear-gradient);}.cls-3{fill:url(#linear-gradient-2);}.cls-4{fill:#7eb4bf;}.cls-17,.cls-4{opacity:0.45;}.cls-5{fill:#142d51;}.cls-6{stroke:#00b6fa;stroke-miterlimit:10;stroke-width:0.64px;}.cls-7{clip-path:url(#clip-path);}.cls-8{fill:url(#linear-gradient-3);}.cls-9{clip-path:url(#clip-path-2);}.cls-10{fill:url(#linear-gradient-4);}.cls-11{clip-path:url(#clip-path-3);}.cls-12{fill:url(#linear-gradient-5);}.cls-13{clip-path:url(#clip-path-4);}.cls-14{fill:url(#linear-gradient-6);}.cls-15{clip-path:url(#clip-path-5);}.cls-16{fill:url(#linear-gradient-7);}.cls-17{fill:#fff;}</style><linearGradient id="linear-gradient" x1="17.32" y1="40" x2="17.32" gradientUnits="userSpaceOnUse"><stop offset="0" stop-color="#fff"/><stop offset="1" stop-color="#fff"/></linearGradient><linearGradient id="linear-gradient-2" x1="25.98" y1="40" x2="25.98" gradientUnits="userSpaceOnUse"><stop offset="0" stop-color="#cbe3e8"/><stop offset="1" stop-color="#cbe3e8"/></linearGradient><clipPath id="clip-path"><path id="SVGID" class="cls-1" d="M23,21.83c-.11.57-2,4.63-5.71,5.28-1.49.26-1.7.68-1.33,1.07a6.16,6.16,0,0,0,.94.16,8.72,8.72,0,0,0,6.28-4.29,6.5,6.5,0,0,0,.71-1.91c-.24-.29-.5-.55-.68-.55s-.16.05-.21.24"/></clipPath><linearGradient id="linear-gradient-3" x1="-372.97" y1="145.41" x2="-372.59" y2="145.41" gradientTransform="translate(8660.17 -3345.16) scale(23.18)" gradientUnits="userSpaceOnUse"><stop offset="0" stop-color="#01aae4"/><stop offset="1" stop-color="#1f96f4"/></linearGradient><clipPath id="clip-path-2"><rect id="SVGID-2" data-name="SVGID" class="cls-1" x="11.44" y="12.51" width="11.51" height="1.18"/></clipPath><linearGradient id="linear-gradient-4" x1="-376.36" y1="141.56" x2="-375.98" y2="141.56" gradientTransform="translate(11501.29 -4308.52) scale(30.53)" xlink:href="#linear-gradient-3"/><clipPath id="clip-path-3"><path id="SVGID-3" data-name="SVGID" class="cls-1" d="M9.66,12.51v4.32l12.09,9.05a8.67,8.67,0,0,0,1.41-1.83,7.23,7.23,0,0,0,.89-3L12.59,12.51Z"/></clipPath><linearGradient id="linear-gradient-5" x1="-382.64" y1="133.06" x2="-382.27" y2="133.06" gradientTransform="translate(26109.02 -9058.62) scale(68.22)" xlink:href="#linear-gradient-3"/><clipPath id="clip-path-4"><path id="SVGID-4" data-name="SVGID" class="cls-1" d="M14.4,12.51l9.71,7.27v-7.3H14.4Z"/></clipPath><linearGradient id="linear-gradient-6" x1="-383.43" y1="132.42" x2="-383.06" y2="132.42" gradientTransform="translate(30107.03 -10378.21) scale(78.5)" xlink:href="#linear-gradient-3"/><clipPath id="clip-path-5"><path id="SVGID-5" data-name="SVGID" class="cls-1" d="M9.66,18.61c0,1.25-.1,3.63,1,5.44a8.62,8.62,0,0,0,6.28,4.29,7.83,7.83,0,0,0,4-1.7L9.66,18.24Z"/></clipPath><linearGradient id="linear-gradient-7" x1="-383.38" y1="131.72" x2="-383" y2="131.72" gradientTransform="translate(31499.62 -10800.98) scale(82.18)" xlink:href="#linear-gradient-3"/></defs><title>Asset 24</title><g id="Layer_2" data-name="Layer 2"><g id="Ñëîé_1" data-name="Ñëîé 1"><polygon class="cls-2" points="34.64 30 34.64 10 17.32 0 0 10 0 30 17.32 40 34.64 30"/><polygon class="cls-3" points="34.64 30 34.64 10 17.32 0 17.32 40 34.64 30"/><polygon class="cls-4" points="34.64 30 17.32 19.91 0 30 17.32 40 34.64 30"/><path class="cls-5" d="M26.88,9.66V18c0,1.73.16,4.95-1.31,7.43a11.92,11.92,0,0,1-8.66,5.86,12.06,12.06,0,0,1-8.66-5.88c-1.46-2.46-1.31-5.71-1.31-7.43V9.66Z"/><path class="cls-6" d="M26.91,9.66V18c0,1.73.15,5-1.34,7.43a12,12,0,0,1-8.66,5.86,12,12,0,0,1-8.69-5.86c-1.46-2.49-1.3-5.7-1.3-7.43V9.66Z"/><g class="cls-7"><rect class="cls-8" x="15.6" y="21.59" width="8.27" height="6.78"/></g><g class="cls-9"><rect class="cls-10" x="11.44" y="12.51" width="11.51" height="1.18"/></g><g class="cls-11"><rect class="cls-12" x="9.66" y="12.51" width="14.36" height="13.37"/></g><g class="cls-13"><rect class="cls-14" x="14.4" y="12.51" width="9.73" height="7.27"/></g><g class="cls-15"><rect class="cls-16" x="9.56" y="18.24" width="11.33" height="10.13"/></g><polygon id="top" class="cls-17" points="34.64 10 17.32 0 0 10 17.32 19.91 34.64 10"/></g></g></svg>