<svg xmlns="http://www.w3.org/2000/svg" xmlns:xlink="http://www.w3.org/1999/xlink" viewBox="0 0 34.64 40"><defs><style>.cls-1{fill:url(#linear-gradient);}.cls-2{fill:url(#linear-gradient-2);}.cls-3{fill:#00a2aa;}.cls-4{fill:#7eb4bf;}.cls-4,.cls-5{opacity:0.45;}.cls-5{fill:#fff;}</style><linearGradient id="linear-gradient" x1="17.32" y1="40" x2="17.32" gradientUnits="userSpaceOnUse"><stop offset="0" stop-color="#fff"/><stop offset="1" stop-color="#fff"/></linearGradient><linearGradient id="linear-gradient-2" x1="25.98" y1="40" x2="25.98" gradientUnits="userSpaceOnUse"><stop offset="0" stop-color="#cbe3e8"/><stop offset="1" stop-color="#cbe3e8"/></linearGradient></defs><title>Asset 23</title><g id="Layer_2" data-name="Layer 2"><g id="Ñëîé_1" data-name="Ñëîé 1"><polygon class="cls-1" points="34.64 30 34.64 10 17.32 0 0 10 0 30 17.32 40 34.64 30"/><polygon class="cls-2" points="34.64 30 34.64 10 17.32 0 17.32 40 34.64 30"/><path class="cls-3" d="M14.16,8.47a7.61,7.61,0,0,1,7,0l.18.68L22,9a2.79,2.79,0,0,1,.55.37,11,11,0,0,1,3,3.74c-.08.21-.16.41-.25.61l.61.21a14,14,0,0,1,1,4.85c-.15.17-.31.33-.47.49a3,3,0,0,1,.46.49,14.45,14.45,0,0,1-1,4.85l-.61.2.25.62a10.42,10.42,0,0,1-3.47,4.09,2.51,2.51,0,0,1-.77-.1l-.18.68a7.7,7.7,0,0,1-4.17.81,7.6,7.6,0,0,1-2.79-.81c-.05-.23-.11-.46-.17-.68-.27,0-.55.17-.82.09a10.88,10.88,0,0,1-3.44-4.08c.09-.2.17-.42.26-.62a2.58,2.58,0,0,1-.64-.25,14.21,14.21,0,0,1-1-4.81l.46-.48c-.16-.15-.31-.32-.46-.48a14.66,14.66,0,0,1,1-4.85l.63-.2a2.64,2.64,0,0,1-.24-.62,10.58,10.58,0,0,1,3.3-4c.26-.23.62,0,.93,0,.06-.23.12-.45.17-.68m.43.85c-.06.19-.12.38-.17.57l-.62-.11a9.6,9.6,0,0,0-3.14,3.64c-.18.24.07.5.13.74l-.55.18a13.11,13.11,0,0,0-.94,4.54,3,3,0,0,0,.38.42l-.38.39a13.4,13.4,0,0,0,.94,4.56,5.22,5.22,0,0,0,.56.18c-.07.18-.14.37-.22.55a9.63,9.63,0,0,0,3.08,3.73c.22.19.51,0,.76,0,.05.19.11.38.17.58a9.13,9.13,0,0,0,1.26.49,6.77,6.77,0,0,0,4.86-.5c0-.19.1-.37.15-.56.25,0,.55.2.78,0A9.76,9.76,0,0,0,24.72,25l-.24-.54.56-.17A13.57,13.57,0,0,0,26,19.7l-.39-.39a3,3,0,0,0,.38-.42A12.73,12.73,0,0,0,25,14.37a2.6,2.6,0,0,0-.55-.21c.07-.19.15-.37.22-.55A9.66,9.66,0,0,0,21.63,9.9c-.22-.19-.52,0-.77,0-.05-.19-.11-.38-.17-.57a7.21,7.21,0,0,0-2-.65,6.76,6.76,0,0,0-4.1.64Z"/><path class="cls-3" d="M14.92,9.62a6.37,6.37,0,0,1,5.43,0l.12.49-.83,1.17a.59.59,0,0,1-.54.23h-3a.58.58,0,0,1-.49-.28c-.26-.38-.53-.74-.78-1.12A3.71,3.71,0,0,1,14.92,9.62Z"/><path class="cls-3" d="M11,13.57a9.3,9.3,0,0,1,2.83-3.33,3.44,3.44,0,0,1,.45,0c.3.41.59.83.88,1.25,0,.15,0,.31-.08.43l-1.27,1.8a.53.53,0,0,1-.49.26H11.22Z"/><path class="cls-3" d="M20.93,10.31c.16,0,.32-.06.48-.09a9.44,9.44,0,0,1,2.82,3.36c-.06.15-.12.31-.17.46H21.93a.52.52,0,0,1-.48-.24L20.16,12c-.11-.13-.05-.31-.06-.48C20.39,11.1,20.67,10.7,20.93,10.31Z"/><path class="cls-3" d="M15.59,12.17a.57.57,0,0,1,.5-.29h3.09a.54.54,0,0,1,.47.26l1.24,1.75a.54.54,0,0,1,0,.68l-1.24,1.77a.57.57,0,0,1-.54.24h-3a.56.56,0,0,1-.47-.23c-.45-.64-.92-1.29-1.36-1.93v-.36c.44-.65.89-1.26,1.32-1.89Z"/><path class="cls-3" d="M10.57,14.62a2.15,2.15,0,0,1,.82-.2h2a.6.6,0,0,1,.53.32l1.2,1.71a.53.53,0,0,1,0,.64c-.33.47-.67.93-1,1.4-.18.24-.31.52-.6.62-1.15,0-2.29,0-3.43,0-.12-.12-.24-.26-.36-.39A13.15,13.15,0,0,1,10.57,14.62Z"/><path class="cls-3" d="M21.43,14.68a.56.56,0,0,1,.49-.26h2a2.48,2.48,0,0,1,.8.2,12.92,12.92,0,0,1,.85,4.08l-.39.4c-1.08,0-2.17,0-3.25,0a.53.53,0,0,1-.48-.23c-.44-.64-.9-1.27-1.34-1.91a.59.59,0,0,1,.1-.53l1.23-1.75Z"/><path class="cls-3" d="M15.59,17.24A.57.57,0,0,1,16.1,17h3a.59.59,0,0,1,.56.24c.44.64.9,1.28,1.35,1.91v.35L19.65,21.4a.59.59,0,0,1-.55.23h-3a.6.6,0,0,1-.53-.33c-.42-.62-.85-1.22-1.28-1.83,0-.12,0-.24,0-.36.42-.63.87-1.24,1.3-1.87Z"/><path class="cls-3" d="M10.08,19.5c1.09,0,2.18,0,3.28,0a.53.53,0,0,1,.49.26c.41.59.82,1.17,1.24,1.75.13.14.09.34.1.51L13.85,23.9a.55.55,0,0,1-.49.26h-2a2.7,2.7,0,0,1-.83-.19,13.2,13.2,0,0,1-.84-4.1l.37-.37Z"/><path class="cls-3" d="M21.44,19.74a.53.53,0,0,1,.5-.25H25c.25,0,.37.25.54.38a13.74,13.74,0,0,1-.84,4.1,2.35,2.35,0,0,1-.81.2H22a.54.54,0,0,1-.5-.25c-.46-.64-.89-1.28-1.35-1.92a.79.79,0,0,1,.11-.5c.4-.59.82-1.17,1.23-1.76Z"/><path class="cls-3" d="M15.63,22.26A.55.55,0,0,1,16.1,22h3.11a.56.56,0,0,1,.45.24c.43.6.85,1.21,1.27,1.82.12.13.07.3.09.45l-1.36,1.92a.59.59,0,0,1-.55.25h-3a.56.56,0,0,1-.5-.3l-1.32-1.87c0-.12,0-.24,0-.36Z"/><path class="cls-3" d="M11.22,24.56h2.14a.51.51,0,0,1,.48.26l1.24,1.76a.51.51,0,0,1,0,.62l-.78,1.11c-.19,0-.42.12-.58,0A9.18,9.18,0,0,1,11.05,25,2.38,2.38,0,0,1,11.22,24.56Z"/><path class="cls-3" d="M21.44,24.81a.53.53,0,0,1,.5-.25c.7,0,1.41,0,2.11,0a3.57,3.57,0,0,1,.19.45,9.48,9.48,0,0,1-2.84,3.35c-.18-.05-.43,0-.54-.2l-.69-1a.56.56,0,0,1,0-.69C20.64,26,21,25.37,21.44,24.81Z"/><path class="cls-3" d="M15.64,27.32a.58.58,0,0,1,.46-.23h3a.6.6,0,0,1,.53.23l.83,1.18c0,.15-.08.31-.12.47a6.35,6.35,0,0,1-5.42,0c0-.16-.09-.32-.13-.47.29-.4.56-.79.84-1.19Z"/><polygon class="cls-4" points="34.64 30 17.32 19.91 0 30 17.32 40 34.64 30"/><polygon id="top" class="cls-5" points="34.64 10 17.32 0 0 10 17.32 19.91 34.64 10"/></g></g></svg>