<svg xmlns="http://www.w3.org/2000/svg" xmlns:xlink="http://www.w3.org/1999/xlink" viewBox="0 0 767.43 340"><defs><style>.cls-1{fill:none;}.cls-2{fill:url(#linear-gradient);}.cls-3{fill:url(#linear-gradient-2);}.cls-4{fill:#0c4381;}.cls-11,.cls-4{opacity:0.45;}.cls-5{fill:#2e81ac;}.cls-6{fill:#184e72;}.cls-7{fill:#19aed5;}.cls-8{clip-path:url(#clip-path);}.cls-9{fill:#1c60a1;}.cls-10{fill:url(#radial-gradient);}.cls-11{fill:#fff;}.cls-12{fill:#1e62a1;}</style><linearGradient id="linear-gradient" x1="147.22" y1="340" x2="147.22" gradientUnits="userSpaceOnUse"><stop offset="0" stop-color="#1595cf"/><stop offset="1" stop-color="#21d8df"/></linearGradient><linearGradient id="linear-gradient-2" x1="220.84" y1="340" x2="220.84" gradientUnits="userSpaceOnUse"><stop offset="0" stop-color="#2869b6"/><stop offset="1" stop-color="#34a4c8"/></linearGradient><clipPath id="clip-path"><rect class="cls-1" x="147.01" y="8.07" width="119.47" height="252.84"/></clipPath><radialGradient id="radial-gradient" cx="147.01" cy="168.42" r="74.21" xlink:href="#linear-gradient"/></defs><title>Asset 6</title><g id="Layer_2" data-name="Layer 2"><g id="White_member_copy" data-name="White_member copy"><polygon class="cls-2" points="294.45 255 294.45 85 147.22 0 0 85 0 255 147.22 340 294.45 255"/><polygon class="cls-3" points="294.45 255 294.45 85 147.22 0 147.22 340 294.45 255"/><polygon class="cls-4" points="294.45 255 147.22 169.2 0 255 147.22 340 294.45 255"/><path class="cls-5" d="M147,79.5l-1.39,0A153.21,153.21,0,0,0,63.3,104c.11,23,5.2,123.45,83.71,156.5h0c78-32.85,83.53-132.31,83.71-156.08C203.38,88.12,175.25,79.77,147,79.5Z"/><path class="cls-6" d="M147,79.5v181h0c78-32.85,83.53-132.31,83.71-156.08C203.38,88.12,175.25,79.77,147,79.5Z"/><path class="cls-7" d="M165.12,143.11a18.49,18.49,0,0,1-9.52,16.18L166.17,200H128.71l11-39.7a18.51,18.51,0,1,1,25.43-17.17Z"/><g class="cls-8"><path class="cls-9" d="M165.12,143.11a18.49,18.49,0,0,1-9.52,16.18L166.17,200H128.71l11-39.7a18.51,18.51,0,1,1,25.43-17.17Z"/></g><path class="cls-10" d="M145.92,97.53l1.09,0c22,.21,44,6.73,65.33,19.43-.14,18.55-4.43,96.17-65.33,121.81h0C85.74,213,81.77,134.6,81.68,116.65a119.49,119.49,0,0,1,64.24-19.12m0-6a125.13,125.13,0,0,0-67.58,20.13l-2.71,1.8v3.26c0,9.45,1.12,34.21,10.06,60.07a128.18,128.18,0,0,0,20.55,38.36,96.8,96.8,0,0,0,38.42,29.25l2.34,1,2.34-1a96.89,96.89,0,0,0,38.25-29,127.94,127.94,0,0,0,20.56-38.11c9-25.81,10.15-50.7,10.22-60.2l0-3.46-3-1.77c-22.24-13.23-45.24-20.06-68.36-20.28h-.39l-.76,0Z"/><polygon id="top" class="cls-11" points="294.45 85.03 147.22 0 0 85.03 147.22 169.2 294.45 85.03"/><path class="cls-12" d="M387.59,128.21a33,33,0,0,1,8.08,1.73,23,23,0,0,1,7,3.81,18.17,18.17,0,0,1,4.9,6.11,18.82,18.82,0,0,1,1.85,8.57,27.62,27.62,0,0,1-1.85,10.35,19.58,19.58,0,0,1-5.72,7.84,27.14,27.14,0,0,1-9.86,5,51.52,51.52,0,0,1-14.35,1.75H333.06V86.69h44.6q14,0,21.64,5.45t7.6,16.4A17.3,17.3,0,0,1,401,122a20.55,20.55,0,0,1-6.15,3.72,30.71,30.71,0,0,1-7.29,1.85Zm-13.74-5.33a21.68,21.68,0,0,0,5.09-.57,10.44,10.44,0,0,0,4.08-1.94,9,9,0,0,0,2.69-3.57,13.4,13.4,0,0,0,1-5.42,12.45,12.45,0,0,0-1-5.29,8.81,8.81,0,0,0-2.75-3.45,11.35,11.35,0,0,0-4.18-1.88,22.92,22.92,0,0,0-5.26-.57H351.94v22.69Zm-1.09,37.05a39,39,0,0,0,6.69-.52,13,13,0,0,0,5.11-1.93,9.22,9.22,0,0,0,3.27-3.88,15,15,0,0,0,1.15-6.38,14.55,14.55,0,0,0-1.09-6,9.16,9.16,0,0,0-3.05-3.78,12.66,12.66,0,0,0-4.72-2,30.17,30.17,0,0,0-6.09-.57H351.94v25.06Z"/><path class="cls-12" d="M423.12,173.36V86.69h37.47a69.17,69.17,0,0,1,14.25,1.39,32.4,32.4,0,0,1,11.47,4.63,22.9,22.9,0,0,1,7.63,8.57,28.33,28.33,0,0,1,2.78,13.19,34,34,0,0,1-2.33,13.11,24.15,24.15,0,0,1-6.66,9.29,28.5,28.5,0,0,1-10.44,5.53,46.87,46.87,0,0,1-13.68,1.85H442.19v29.11Zm38.44-43.88q7.2,0,11.07-3.72t3.88-11.11a15.86,15.86,0,0,0-1.09-6.26,10.12,10.12,0,0,0-3.09-4.06,12.54,12.54,0,0,0-4.78-2.21,26.58,26.58,0,0,0-6.12-.66H442.19v28Z"/><path class="cls-12" d="M517.42,144.37a20.21,20.21,0,0,0,3.09,7,18.66,18.66,0,0,0,5.17,5,23,23,0,0,0,6.9,2.93,34.13,34.13,0,0,0,8.39,1,26.35,26.35,0,0,0,7.62-.94,14.86,14.86,0,0,0,5-2.45,9.08,9.08,0,0,0,2.75-3.42,9.29,9.29,0,0,0,.85-3.84,8.23,8.23,0,0,0-1-4.21,9.67,9.67,0,0,0-2.91-3.06,21.82,21.82,0,0,0-4.72-2.39q-2.8-1-6.5-2.27l-13.14-3.57q-11.25-3.33-17.22-9.44t-6-15.92a22.76,22.76,0,0,1,2.36-10.56,21,21,0,0,1,6.78-7.66A32.25,32.25,0,0,1,525.5,85.9a56.84,56.84,0,0,1,14-1.57q14.24,0,23,6.17T575,108.36l-15,5.14-.48-.12a16.34,16.34,0,0,0-8.26-11.29,18.64,18.64,0,0,0-5.75-2,32.29,32.29,0,0,0-5.54-.52,28.18,28.18,0,0,0-7.17.79,14.82,14.82,0,0,0-4.88,2.12,8.58,8.58,0,0,0-2.75,3,7.09,7.09,0,0,0-.88,3.36,7.88,7.88,0,0,0,1,4.18,9.8,9.8,0,0,0,2.7,2.9,16.29,16.29,0,0,0,3.87,2.06c1.47.57,3,1.11,4.57,1.64l14.4,3.75a91.9,91.9,0,0,1,11,4.14,31.16,31.16,0,0,1,8,5.18,19.62,19.62,0,0,1,4.9,6.93,24.38,24.38,0,0,1-7.65,28.57,34,34,0,0,1-11,5.54,50.25,50.25,0,0,1-14.74,2,55.23,55.23,0,0,1-13.56-1.64,40.49,40.49,0,0,1-11.62-4.84,31.87,31.87,0,0,1-8.71-8,26.93,26.93,0,0,1-4.85-11L517,144.25Z"/><path class="cls-12" d="M646,155.21H607.73l-6.42,18.15H581.4l33.9-86.67h24l33.78,86.67H652.46Zm-32.8-15.62h27.23L626.86,101Z"/><path class="cls-12" d="M740.22,155.21H701.91l-6.42,18.15H675.58l33.9-86.67h24l33.78,86.67H746.64Zm-32.8-15.62h27.24L721,101Z"/><path class="cls-12" d="M333.06,250.69V187.43H360.4a51.21,51.21,0,0,1,10.41,1,23.85,23.85,0,0,1,8.37,3.38,16.77,16.77,0,0,1,5.57,6.26,20.67,20.67,0,0,1,2,9.63,24.81,24.81,0,0,1-1.7,9.56,17.71,17.71,0,0,1-4.86,6.78,20.92,20.92,0,0,1-7.62,4,34.85,34.85,0,0,1-10,1.34H347v21.25Zm28.05-32c3.5,0,6.2-.9,8.08-2.71s2.83-4.52,2.83-8.11a11.49,11.49,0,0,0-.79-4.57,7.33,7.33,0,0,0-2.26-3,9.14,9.14,0,0,0-3.49-1.62,19.36,19.36,0,0,0-4.46-.48H347v20.45Z"/><path class="cls-12" d="M428.31,237.44h-28l-4.68,13.25H381.12l24.74-63.26H423.4l24.65,63.26H433ZM404.36,226h19.88L414.3,197.9Z"/><path class="cls-12" d="M498.2,250.69a10.6,10.6,0,0,1-.71-1,13.36,13.36,0,0,1-.73-1.35,17.61,17.61,0,0,1-.75-1.92c-.25-.75-.51-1.69-.77-2.81l-1.81-6.93A14.57,14.57,0,0,0,489,229a12.53,12.53,0,0,0-8.26-2.54H469.84v24.25H455.92V187.43h31a37.73,37.73,0,0,1,9.32,1.08,20.7,20.7,0,0,1,7.33,3.38,15.57,15.57,0,0,1,4.82,5.88,19.64,19.64,0,0,1,1.72,8.61,18.3,18.3,0,0,1-1,6.21,16.07,16.07,0,0,1-2.81,4.92A14.64,14.64,0,0,1,502,221a16.14,16.14,0,0,1-5.44,1.79,10.91,10.91,0,0,1,3.21,1,11.39,11.39,0,0,1,3.05,2.18,15.53,15.53,0,0,1,2.6,3.54,19.47,19.47,0,0,1,1.84,5l1.85,7.87A24.17,24.17,0,0,0,511,247.8a18.69,18.69,0,0,0,1.79,2.89Zm-13.83-33.57a18.16,18.16,0,0,0,4.55-.53,8.7,8.7,0,0,0,3.45-1.73,7.57,7.57,0,0,0,2.16-3.09,12.5,12.5,0,0,0,.75-4.59,10.91,10.91,0,0,0-.75-4.36,6.38,6.38,0,0,0-2.14-2.69,8.64,8.64,0,0,0-3.36-1.39,21.81,21.81,0,0,0-4.39-.4h-14.8v18.78Z"/><path class="cls-12" d="M536.24,250.69V199.27h-21.3V187.43h56.82v11.84h-21.3v51.42Z"/><path class="cls-12" d="M623.09,250.69,595,211.29l-3.45-5.44.57,6.41v38.43H579.49V187.43h14.58L622,226.88l3.44,5.44-.62-6.41V187.43h12.68v63.26Z"/><path class="cls-12" d="M651.32,250.69V187.43h48.6v11.35H665.59v14.58h28.24V223.7H665.59v15.64h35.08v11.35Z"/><path class="cls-12" d="M752.85,250.69a10.6,10.6,0,0,1-.71-1,13.36,13.36,0,0,1-.73-1.35,17.61,17.61,0,0,1-.75-1.92c-.25-.75-.51-1.69-.77-2.81l-1.81-6.93a14.57,14.57,0,0,0-4.42-7.71,12.53,12.53,0,0,0-8.26-2.54H724.49v24.25H710.57V187.43h31a37.73,37.73,0,0,1,9.32,1.08,20.83,20.83,0,0,1,7.34,3.38,15.64,15.64,0,0,1,4.81,5.88,19.64,19.64,0,0,1,1.72,8.61,18.3,18.3,0,0,1-1,6.21,16.07,16.07,0,0,1-2.81,4.92,14.64,14.64,0,0,1-4.26,3.47,16.14,16.14,0,0,1-5.44,1.79,10.91,10.91,0,0,1,3.21,1,11.39,11.39,0,0,1,3.05,2.18,15.53,15.53,0,0,1,2.6,3.54,19.47,19.47,0,0,1,1.84,5l1.85,7.87a24.17,24.17,0,0,0,1.88,5.41,18.69,18.69,0,0,0,1.79,2.89ZM739,217.12a18.16,18.16,0,0,0,4.55-.53,8.7,8.7,0,0,0,3.45-1.73,7.57,7.57,0,0,0,2.16-3.09,12.5,12.5,0,0,0,.75-4.59,10.91,10.91,0,0,0-.75-4.36,6.38,6.38,0,0,0-2.14-2.69,8.64,8.64,0,0,0-3.36-1.39,21.81,21.81,0,0,0-4.39-.4h-14.8v18.78Z"/></g></g></svg>