<svg xmlns="http://www.w3.org/2000/svg" xmlns:xlink="http://www.w3.org/1999/xlink" viewBox="0 0 34.64 40"><defs><style>.cls-1{fill:url(#linear-gradient);}.cls-2{fill:url(#linear-gradient-2);}.cls-3{fill:#0c4381;}.cls-3,.cls-5{opacity:0.45;}.cls-4{fill:#971a44;}.cls-5{fill:#fff;}</style><linearGradient id="linear-gradient" x1="17.32" y1="40" x2="17.32" gradientUnits="userSpaceOnUse"><stop offset="0" stop-color="#1595cf"/><stop offset="1" stop-color="#21d8df"/></linearGradient><linearGradient id="linear-gradient-2" x1="25.98" y1="40" x2="25.98" gradientUnits="userSpaceOnUse"><stop offset="0" stop-color="#2869b6"/><stop offset="1" stop-color="#34a4c8"/></linearGradient></defs><title>bpsaa_eth12</title><g id="Layer_2" data-name="Layer 2"><g id="Ñëîé_1" data-name="Ñëîé 1"><polygon class="cls-1" points="34.64 30 34.64 10 17.32 0 0 10 0 30 17.32 40 34.64 30"/><polygon class="cls-2" points="34.64 30 34.64 10 17.32 0 17.32 40 34.64 30"/><polygon class="cls-3" points="34.64 30 17.32 19.91 0 30 17.32 40 34.64 30"/><path id="path3110" class="cls-4" d="M17.32,5.19V25.65l9.09-5.38Z"/><path id="path3142" class="cls-4" d="M17.32,27.37v7.44L26.41,22Z"/><path class="cls-4" d="M8.23,20.27l6.83,4L13.68,11.22ZM17.32,5.19V25.65h0V5.19Z"/><path class="cls-4" d="M8.23,22,16,32.9l-.71-6.75Z"/><polygon id="top" class="cls-5" points="34.64 10 17.32 0 0 10 17.32 19.91 34.64 10"/></g></g></svg>