<svg xmlns="http://www.w3.org/2000/svg" xmlns:xlink="http://www.w3.org/1999/xlink" viewBox="0 0 767.81 340"><defs><style>.cls-1{fill:none;}.cls-2{fill:url(#linear-gradient);}.cls-3{fill:url(#linear-gradient-2);}.cls-4{fill:#7eb4bf;}.cls-11,.cls-4{opacity:0.45;}.cls-5{fill:#2e81ac;}.cls-6{fill:#184e72;}.cls-7{fill:#c5dde2;}.cls-8{clip-path:url(#clip-path);}.cls-9{fill:#a8ced6;}.cls-10{fill:url(#radial-gradient);}.cls-11,.cls-12{fill:#fff;}</style><linearGradient id="linear-gradient" x1="147.22" y1="340" x2="147.22" gradientUnits="userSpaceOnUse"><stop offset="0" stop-color="#fff"/><stop offset="1" stop-color="#fff"/></linearGradient><linearGradient id="linear-gradient-2" x1="220.84" y1="340" x2="220.84" gradientUnits="userSpaceOnUse"><stop offset="0" stop-color="#cbe3e8"/><stop offset="1" stop-color="#cbe3e8"/></linearGradient><clipPath id="clip-path"><rect id="SVGID" class="cls-1" x="147.01" y="8.07" width="119.47" height="252.84"/></clipPath><radialGradient id="radial-gradient" cx="147.01" cy="168.42" r="74.21" gradientUnits="userSpaceOnUse"><stop offset="0" stop-color="#2e81ac"/><stop offset="1" stop-color="#bcdbde"/></radialGradient></defs><title>Asset 4</title><g id="Layer_2" data-name="Layer 2"><g id="Blue_member_copy" data-name="Blue_member copy"><polygon class="cls-2" points="294.45 255 294.45 85 147.22 0 0 85 0 255 147.22 340 294.45 255"/><polygon class="cls-3" points="294.45 255 294.45 85 147.22 0 147.22 340 294.45 255"/><polygon class="cls-4" points="294.45 255 147.22 169.2 0 255 147.22 340 294.45 255"/><path class="cls-5" d="M147,79.5l-1.39,0A153.21,153.21,0,0,0,63.3,104c.11,23,5.2,123.45,83.71,156.5h0c78-32.85,83.53-132.31,83.71-156.08C203.38,88.12,175.25,79.77,147,79.5Z"/><path class="cls-6" d="M147,79.5v181h0c78-32.85,83.53-132.31,83.71-156.08C203.38,88.12,175.25,79.77,147,79.5Z"/><path class="cls-7" d="M165.12,143.11a18.49,18.49,0,0,1-9.52,16.18L166.17,200H128.71l11-39.7a18.51,18.51,0,1,1,25.43-17.17Z"/><g class="cls-8"><path class="cls-9" d="M165.12,143.11a18.49,18.49,0,0,1-9.52,16.18L166.17,200H128.71l11-39.7a18.51,18.51,0,1,1,25.43-17.17Z"/></g><path class="cls-10" d="M145.92,97.53l1.09,0c22,.21,44,6.73,65.33,19.43-.14,18.55-4.43,96.17-65.33,121.81h0C85.74,213,81.77,134.6,81.68,116.65a119.49,119.49,0,0,1,64.24-19.12m0-6a125.13,125.13,0,0,0-67.58,20.13l-2.71,1.8v3.26c0,9.45,1.12,34.21,10.06,60.07a128.18,128.18,0,0,0,20.55,38.36,96.8,96.8,0,0,0,38.42,29.25l2.34,1,2.34-1a96.89,96.89,0,0,0,38.25-29,127.94,127.94,0,0,0,20.56-38.11c9-25.81,10.15-50.7,10.22-60.2l0-3.46-3-1.77c-22.24-13.23-45.24-20.06-68.36-20.28h-.39l-.76,0Z"/><polygon id="top" class="cls-11" points="294.45 85.03 147.22 0 0 85.03 147.22 169.2 294.45 85.03"/><path class="cls-12" d="M388.12,127.23A33.43,33.43,0,0,1,396.2,129a23.27,23.27,0,0,1,7,3.82,18.17,18.17,0,0,1,4.9,6.11,18.82,18.82,0,0,1,1.85,8.57,27.62,27.62,0,0,1-1.85,10.35,19.57,19.57,0,0,1-5.72,7.83,27,27,0,0,1-9.86,5,51.52,51.52,0,0,1-14.35,1.75H333.58V85.71h44.61q14,0,21.64,5.45t7.6,16.4a17.79,17.79,0,0,1-1.61,7.81,18,18,0,0,1-4.26,5.69,20.55,20.55,0,0,1-6.15,3.72,30.22,30.22,0,0,1-7.29,1.84Zm-13.74-5.33a21.54,21.54,0,0,0,5.08-.57,10.42,10.42,0,0,0,4.09-1.94,9.08,9.08,0,0,0,2.69-3.57,13.4,13.4,0,0,0,1-5.42,12.45,12.45,0,0,0-1-5.29,8.81,8.81,0,0,0-2.75-3.45,11.19,11.19,0,0,0-4.18-1.88,22.92,22.92,0,0,0-5.26-.57H352.47V121.9Zm-1.09,37a40,40,0,0,0,6.69-.52,13,13,0,0,0,5.11-1.93,9.29,9.29,0,0,0,3.27-3.88,15,15,0,0,0,1.15-6.38,14.52,14.52,0,0,0-1.09-6,9.1,9.1,0,0,0-3.06-3.78,12.52,12.52,0,0,0-4.72-2,30,30,0,0,0-6.08-.57H352.47V159Z"/><path class="cls-12" d="M423.65,172.38V85.71h37.47a69.17,69.17,0,0,1,14.25,1.39,32.4,32.4,0,0,1,11.47,4.63,22.94,22.94,0,0,1,7.63,8.56,28.4,28.4,0,0,1,2.78,13.2,34,34,0,0,1-2.33,13.1,24.07,24.07,0,0,1-6.66,9.29,28.37,28.37,0,0,1-10.44,5.54,47.26,47.26,0,0,1-13.68,1.85H442.72v29.11Zm38.43-43.88q7.21,0,11.08-3.72T477,113.67a15.68,15.68,0,0,0-1.09-6.26,10,10,0,0,0-3.08-4.06,12.54,12.54,0,0,0-4.78-2.21,26.58,26.58,0,0,0-6.12-.66H442.72v28Z"/><path class="cls-12" d="M518,143.39a20.11,20.11,0,0,0,3.09,7.05,18.53,18.53,0,0,0,5.17,5,23,23,0,0,0,6.9,2.93,34.13,34.13,0,0,0,8.39,1,26.4,26.4,0,0,0,7.62-.94,15,15,0,0,0,5-2.45,9.18,9.18,0,0,0,2.75-3.42,9.29,9.29,0,0,0,.85-3.84,8.33,8.33,0,0,0-1-4.21,9.78,9.78,0,0,0-2.91-3.06,21.82,21.82,0,0,0-4.72-2.39q-2.8-1-6.5-2.27l-13.14-3.57q-11.25-3.33-17.22-9.44t-6-15.92a22.76,22.76,0,0,1,2.36-10.56,21,21,0,0,1,6.78-7.66A32.06,32.06,0,0,1,526,84.92a56.84,56.84,0,0,1,14-1.57q14.22,0,23,6.17t12.56,17.86l-15,5.14-.48-.12a16.34,16.34,0,0,0-8.26-11.29,18.73,18.73,0,0,0-5.75-2,32.29,32.29,0,0,0-5.54-.52,28.32,28.32,0,0,0-7.18.79,14.86,14.86,0,0,0-4.87,2.12,8.58,8.58,0,0,0-2.75,3,7.09,7.09,0,0,0-.88,3.36,7.88,7.88,0,0,0,1,4.18,9.9,9.9,0,0,0,2.69,2.9,16.37,16.37,0,0,0,3.88,2.06c1.47.57,3,1.11,4.57,1.64l14.4,3.75a91.9,91.9,0,0,1,11,4.14,31.16,31.16,0,0,1,8,5.18,19.62,19.62,0,0,1,4.9,6.93,26.12,26.12,0,0,1-.73,20.13,23.92,23.92,0,0,1-6.93,8.44,33.84,33.84,0,0,1-11,5.54,50.26,50.26,0,0,1-14.74,2,55.23,55.23,0,0,1-13.56-1.63,40.49,40.49,0,0,1-11.62-4.84,31.91,31.91,0,0,1-8.72-8,27,27,0,0,1-4.84-11l14.41-6Z"/><path class="cls-12" d="M646.57,154.23H608.26l-6.42,18.15H581.93l33.89-86.67h24l33.78,86.67H653Zm-32.8-15.62H641l-13.62-38.56Z"/><path class="cls-12" d="M740.75,154.23H702.44L696,172.38H676.11L710,85.71h24l33.78,86.67H747.17ZM708,138.61h27.23l-13.61-38.56Z"/><path class="cls-12" d="M333.21,248.59V185.33h27.35a50.33,50.33,0,0,1,10.4,1,23.51,23.51,0,0,1,8.37,3.37A16.6,16.6,0,0,1,384.9,196a20.67,20.67,0,0,1,2,9.63,24.81,24.81,0,0,1-1.7,9.56,17.5,17.5,0,0,1-4.86,6.78,20.76,20.76,0,0,1-7.62,4.05,34.38,34.38,0,0,1-10,1.34H347.13v21.25Zm28.05-32c3.51,0,6.2-.9,8.09-2.71s2.83-4.52,2.83-8.11a11.48,11.48,0,0,0-.8-4.57,7.38,7.38,0,0,0-2.25-3,9.21,9.21,0,0,0-3.49-1.62,19.42,19.42,0,0,0-4.46-.48H347.13v20.45Z"/><path class="cls-12" d="M428.46,235.34h-28l-4.69,13.25H381.28L406,185.33h17.54l24.65,63.26H433.14Zm-23.94-11.4H424.4l-9.94-28.14Z"/><path class="cls-12" d="M498.35,248.59a10.6,10.6,0,0,1-.7-1,11.62,11.62,0,0,1-.73-1.35,17.61,17.61,0,0,1-.75-1.92c-.25-.75-.51-1.68-.78-2.8l-1.81-6.94a14.5,14.5,0,0,0-4.41-7.71,12.55,12.55,0,0,0-8.27-2.54H470v24.25H456.07V185.33h31a37.81,37.81,0,0,1,9.33,1.08,20.78,20.78,0,0,1,7.33,3.38,15.66,15.66,0,0,1,4.82,5.88,19.79,19.79,0,0,1,1.72,8.61,18.06,18.06,0,0,1-1,6.21,16.22,16.22,0,0,1-2.8,4.93,14.78,14.78,0,0,1-4.27,3.46,16.16,16.16,0,0,1-5.43,1.79,10.76,10.76,0,0,1,3.2,1,11.23,11.23,0,0,1,3.05,2.18,15.26,15.26,0,0,1,2.61,3.54,19.11,19.11,0,0,1,1.83,5l1.86,7.87a24.22,24.22,0,0,0,1.87,5.41,19,19,0,0,0,1.79,2.89ZM484.53,215a18.27,18.27,0,0,0,4.55-.53,8.66,8.66,0,0,0,3.44-1.73,7.59,7.59,0,0,0,2.17-3.09,12.5,12.5,0,0,0,.75-4.59,10.82,10.82,0,0,0-.75-4.35,6.37,6.37,0,0,0-2.15-2.7,8.53,8.53,0,0,0-3.35-1.39,21.92,21.92,0,0,0-4.4-.4H470V215Z"/><path class="cls-12" d="M536.39,248.59V197.17H515.1V185.33h56.81v11.84H550.62v51.42Z"/><path class="cls-12" d="M623.25,248.59l-28.1-39.4-3.44-5.44.57,6.41v38.43H579.64V185.33h14.58l27.88,39.45,3.45,5.44-.62-6.41V185.33h12.68v63.26Z"/><path class="cls-12" d="M651.48,248.59V185.33h48.6v11.35H665.75v14.58H694V221.6H665.75v15.64h35.08v11.35Z"/><path class="cls-12" d="M753,248.59a10.6,10.6,0,0,1-.7-1,11.62,11.62,0,0,1-.73-1.35,17.61,17.61,0,0,1-.75-1.92c-.25-.75-.51-1.68-.78-2.8l-1.81-6.94a14.5,14.5,0,0,0-4.41-7.71,12.55,12.55,0,0,0-8.27-2.54H724.64v24.25H710.73V185.33h31a37.81,37.81,0,0,1,9.33,1.08,20.78,20.78,0,0,1,7.33,3.38,15.66,15.66,0,0,1,4.82,5.88,19.79,19.79,0,0,1,1.72,8.61,18.06,18.06,0,0,1-1,6.21,16.22,16.22,0,0,1-2.8,4.93,14.78,14.78,0,0,1-4.27,3.46,16.16,16.16,0,0,1-5.43,1.79,10.76,10.76,0,0,1,3.2,1,11.23,11.23,0,0,1,3,2.18,15.26,15.26,0,0,1,2.61,3.54,19.11,19.11,0,0,1,1.83,5l1.86,7.87a24.22,24.22,0,0,0,1.87,5.41,19,19,0,0,0,1.79,2.89ZM739.18,215a18.22,18.22,0,0,0,4.55-.53,8.66,8.66,0,0,0,3.44-1.73,7.49,7.49,0,0,0,2.17-3.09,12.5,12.5,0,0,0,.75-4.59,10.82,10.82,0,0,0-.75-4.35,6.42,6.42,0,0,0-2.14-2.7,8.64,8.64,0,0,0-3.36-1.39,21.92,21.92,0,0,0-4.4-.4h-14.8V215Z"/></g></g></svg>