<svg xmlns="http://www.w3.org/2000/svg" xmlns:xlink="http://www.w3.org/1999/xlink" viewBox="0 0 34.64 40"><defs><style>.cls-1{fill:url(#linear-gradient);}.cls-2{fill:url(#linear-gradient-2);}.cls-3{fill:#0c4381;}.cls-3,.cls-5{opacity:0.45;}.cls-4{fill:url(#linear-gradient-3);}.cls-5{fill:#fff;}</style><linearGradient id="linear-gradient" x1="17.32" y1="40" x2="17.32" gradientUnits="userSpaceOnUse"><stop offset="0" stop-color="#1595cf"/><stop offset="1" stop-color="#21d8df"/></linearGradient><linearGradient id="linear-gradient-2" x1="25.98" y1="40" x2="25.98" gradientUnits="userSpaceOnUse"><stop offset="0" stop-color="#2869b6"/><stop offset="1" stop-color="#34a4c8"/></linearGradient><linearGradient id="linear-gradient-3" x1="6.32" y1="-336.33" x2="28.32" y2="-336.33" gradientTransform="matrix(1, 0, 0, -1, 0, -316.33)" gradientUnits="userSpaceOnUse"><stop offset="0" stop-color="#b38c30"/><stop offset="1" stop-color="#f2de98"/></linearGradient></defs><title>bpsaa_pirate2</title><g id="Layer_2" data-name="Layer 2"><g id="Ñëîé_1" data-name="Ñëîé 1"><polygon class="cls-1" points="34.64 30 34.64 10 17.32 0 0 10 0 30 17.32 40 34.64 30"/><polygon class="cls-2" points="34.64 30 34.64 10 17.32 0 17.32 40 34.64 30"/><polygon class="cls-3" points="34.64 30 17.32 19.91 0 30 17.32 40 34.64 30"/><path class="cls-4" d="M17.32,9a11,11,0,1,0,11,11A11,11,0,0,0,17.32,9Zm-5,8.16a2.46,2.46,0,0,1,2.47-2.46h5.63a2.49,2.49,0,0,1,1.73.71L19.3,16.86h-4a.76.76,0,0,0-.8.71v1.77l-2.17,1.12v-3.3Zm10.55,3.67a2.45,2.45,0,0,1-2.46,2.45H14.52v2.1a.75.75,0,0,1-.58.72l-.74,0h-.84V22.47L15.18,21h4.75a.78.78,0,0,0,.82-.72V18.12L22.91,17v3.8Z"/><polygon id="top" class="cls-5" points="34.64 10 17.32 0 0 10 17.32 19.91 34.64 10"/></g></g></svg>