<svg xmlns="http://www.w3.org/2000/svg" xmlns:xlink="http://www.w3.org/1999/xlink" viewBox="0 0 482.02 592.18"><defs><style>.cls-1{fill:none;}.cls-2{fill:url(#linear-gradient);}.cls-3{fill:url(#linear-gradient-2);}.cls-4{fill:#0c4381;}.cls-11,.cls-4{opacity:0.45;}.cls-5{fill:#2e81ac;}.cls-6{fill:#184e72;}.cls-7{fill:#19aed5;}.cls-8{clip-path:url(#clip-path);}.cls-9{fill:#1c60a1;}.cls-10{fill:url(#radial-gradient);}.cls-11{fill:#fff;}.cls-12{fill:#1e62a1;}</style><linearGradient id="linear-gradient" x1="241.01" y1="442.01" x2="241.01" gradientUnits="userSpaceOnUse"><stop offset="0" stop-color="#1595cf"/><stop offset="1" stop-color="#21d8df"/></linearGradient><linearGradient id="linear-gradient-2" x1="336.71" y1="442.01" x2="336.71" gradientUnits="userSpaceOnUse"><stop offset="0" stop-color="#2869b6"/><stop offset="1" stop-color="#34a4c8"/></linearGradient><clipPath id="clip-path"><rect class="cls-1" x="240.73" y="10.49" width="155.31" height="328.7"/></clipPath><radialGradient id="radial-gradient" cx="240.74" cy="218.95" r="96.47" xlink:href="#linear-gradient"/></defs><title>bpsaa_below2</title><g id="Layer_2" data-name="Layer 2"><g id="Blue_text" data-name="Blue text"><polygon class="cls-2" points="432.4 331.51 432.4 110.5 241.01 0 49.61 110.5 49.61 331.51 241.01 442.01 432.4 331.51"/><polygon class="cls-3" points="432.4 331.51 432.4 110.5 241.01 0 241.01 442.01 432.4 331.51"/><polygon class="cls-4" points="432.4 331.51 241.01 219.97 49.61 331.51 241.01 442.01 432.4 331.51"/><path class="cls-5" d="M240.73,103.35l-1.81,0c-53.91,0-93.74,23-107,31.84.14,29.9,6.76,160.49,108.82,203.46h0c101.45-42.71,108.6-172,108.82-202.91C314,114.56,277.45,103.7,240.73,103.35Z"/><path class="cls-6" d="M240.73,103.35V338.62h0c101.45-42.71,108.6-172,108.82-202.91C314,114.56,277.45,103.7,240.73,103.35Z"/><path class="cls-7" d="M264.27,186.05a24,24,0,0,1-12.37,21L265.64,260h-48.7l14.27-51.62a24.06,24.06,0,1,1,33.06-22.31Z"/><g class="cls-8"><path class="cls-9" d="M264.27,186.05a24,24,0,0,1-12.37,21L265.64,260h-48.7l14.27-51.62a24.06,24.06,0,1,1,33.06-22.31Z"/></g><path class="cls-10" d="M239.32,126.79l1.41,0c28.66.27,57.2,8.75,84.93,25.26-.18,24.11-5.76,125-84.93,158.36h0C161.08,276.9,155.91,175,155.8,151.65a155.32,155.32,0,0,1,83.52-24.86m0-7.84a162.65,162.65,0,0,0-87.86,26.16l-3.53,2.34,0,4.23C148,164,149.4,196.16,161,229.78c6.64,19.2,15.63,36,26.72,49.87a126,126,0,0,0,49.94,38l3,1.28,3-1.28a125.86,125.86,0,0,0,49.73-37.74c11.07-13.8,20.07-30.47,26.73-49.54,11.71-33.56,13.19-65.91,13.28-78.26l0-4.49-3.86-2.31c-28.91-17.21-58.81-26.08-88.88-26.36h-1.48Z"/><polygon id="top" class="cls-11" points="432.4 110.54 241.01 0 49.61 110.54 241.01 219.97 432.4 110.54"/><path class="cls-12" d="M60.54,539.43a36.79,36.79,0,0,1,9,1.92,25.9,25.9,0,0,1,7.72,4.23,20.21,20.21,0,0,1,5.45,6.79,20.94,20.94,0,0,1,2,9.5,30.71,30.71,0,0,1-2,11.49,21.76,21.76,0,0,1-6.35,8.7,30,30,0,0,1-11,5.55,57.15,57.15,0,0,1-15.93,1.95H0V493.34H49.52q15.58,0,24,6.05T82,517.6a19.69,19.69,0,0,1-1.78,8.66,19.9,19.9,0,0,1-4.74,6.32,22.5,22.5,0,0,1-6.82,4.13,33.7,33.7,0,0,1-8.09,2Zm-15.25-5.91a23.59,23.59,0,0,0,5.64-.64,11.47,11.47,0,0,0,4.53-2.15,10.17,10.17,0,0,0,3-4,15.11,15.11,0,0,0,1.07-6,13.93,13.93,0,0,0-1.11-5.88,9.83,9.83,0,0,0-3.06-3.82A12.52,12.52,0,0,0,50.73,509a25.58,25.58,0,0,0-5.85-.64H21v25.2Zm-1.21,41.12a44.14,44.14,0,0,0,7.42-.57,14.48,14.48,0,0,0,5.68-2.15,10.34,10.34,0,0,0,3.63-4.3,16.85,16.85,0,0,0,1.27-7.09,16.1,16.1,0,0,0-1.21-6.69,10.14,10.14,0,0,0-3.39-4.19,14,14,0,0,0-5.24-2.19,33.5,33.5,0,0,0-6.75-.64H21v27.82Z"/><path class="cls-12" d="M100,589.56V493.34h41.59a76.9,76.9,0,0,1,15.82,1.55A35.81,35.81,0,0,1,170.12,500a25.25,25.25,0,0,1,8.47,9.5q3.09,5.93,3.09,14.65a37.55,37.55,0,0,1-2.59,14.55A26.76,26.76,0,0,1,171.7,549a31.76,31.76,0,0,1-11.59,6.15,52.25,52.25,0,0,1-15.18,2H121.14v32.32Zm42.66-48.72q8,0,12.3-4.13t4.3-12.33a17.46,17.46,0,0,0-1.21-7,11.19,11.19,0,0,0-3.43-4.5,13.72,13.72,0,0,0-5.3-2.46,29.37,29.37,0,0,0-6.79-.74H121.14v31.11Z"/><path class="cls-12" d="M204.66,557.37a22.5,22.5,0,0,0,3.43,7.83,20.48,20.48,0,0,0,5.74,5.51,25.6,25.6,0,0,0,7.66,3.26A37.89,37.89,0,0,0,230.8,575a29.24,29.24,0,0,0,8.46-1,16.62,16.62,0,0,0,5.55-2.72,10,10,0,0,0,3.05-3.8,10.35,10.35,0,0,0,.94-4.26,9.17,9.17,0,0,0-1.11-4.67,10.53,10.53,0,0,0-3.22-3.39,23.89,23.89,0,0,0-5.24-2.66q-3.12-1.17-7.22-2.52l-14.58-4q-12.51-3.71-19.12-10.48t-6.62-17.68a25.27,25.27,0,0,1,2.62-11.72,23.45,23.45,0,0,1,7.53-8.5,35.73,35.73,0,0,1,11.79-5.17,62.8,62.8,0,0,1,15.49-1.75q15.78,0,25.56,6.85t13.94,19.82L252,523.11l-.54-.14a18.06,18.06,0,0,0-9.17-12.53,20.72,20.72,0,0,0-6.38-2.22,36.63,36.63,0,0,0-6.15-.57,31.3,31.3,0,0,0-8,.88,16.45,16.45,0,0,0-5.41,2.35,9.63,9.63,0,0,0-3.06,3.32,8,8,0,0,0-1,3.73,8.82,8.82,0,0,0,1.14,4.64,11,11,0,0,0,3,3.22,18.61,18.61,0,0,0,4.3,2.29q2.46.95,5.07,1.81l16,4.17a102.66,102.66,0,0,1,12.16,4.6,34.74,34.74,0,0,1,8.9,5.74,21.69,21.69,0,0,1,5.44,7.7,29.08,29.08,0,0,1-.8,22.34,26.57,26.57,0,0,1-7.7,9.37A37.71,37.71,0,0,1,247.56,590a55.67,55.67,0,0,1-16.36,2.22,61.25,61.25,0,0,1-15-1.82,45.21,45.21,0,0,1-12.9-5.37,35.58,35.58,0,0,1-9.68-8.84A30,30,0,0,1,188.2,564l16-6.72Z"/><path class="cls-12" d="M347.44,569.4H304.91l-7.12,20.16H275.68l37.63-96.22H340l37.49,96.22H354.56ZM311,552.06h30.24l-15.12-42.8Z"/><path class="cls-12" d="M452,569.4H409.45l-7.12,20.16h-22.1l37.62-96.22h26.68L482,589.56H459.11Zm-36.41-17.34H445.8l-15.11-42.8Z"/></g></g></svg>