<svg xmlns="http://www.w3.org/2000/svg" xmlns:xlink="http://www.w3.org/1999/xlink" viewBox="0 0 864.26 300"><defs><style>.cls-1{fill:none;}.cls-2{fill:url(#linear-gradient);}.cls-3{fill:url(#linear-gradient-2);}.cls-4{fill:#7eb4bf;}.cls-11,.cls-4{opacity:0.45;}.cls-5{fill:#2e81ac;}.cls-6{fill:#184e72;}.cls-7{fill:#c5dde2;}.cls-8{clip-path:url(#clip-path);}.cls-9{fill:#a8ced6;}.cls-10{fill:url(#radial-gradient);}.cls-11,.cls-12{fill:#fff;}</style><linearGradient id="linear-gradient" x1="129.9" y1="300" x2="129.9" gradientUnits="userSpaceOnUse"><stop offset="0" stop-color="#fff"/><stop offset="1" stop-color="#fff"/></linearGradient><linearGradient id="linear-gradient-2" x1="194.86" y1="300" x2="194.86" gradientUnits="userSpaceOnUse"><stop offset="0" stop-color="#cbe3e8"/><stop offset="1" stop-color="#cbe3e8"/></linearGradient><clipPath id="clip-path"><rect id="SVGID" class="cls-1" x="129.71" y="7.12" width="105.41" height="223.09"/></clipPath><radialGradient id="radial-gradient" cx="129.72" cy="148.6" r="65.48" gradientUnits="userSpaceOnUse"><stop offset="0" stop-color="#2e81ac"/><stop offset="1" stop-color="#bcdbde"/></radialGradient></defs><title>Asset 1</title><g id="Layer_2" data-name="Layer 2"><g id="White_SIDE" data-name="White SIDE"><polygon class="cls-2" points="259.81 225 259.81 75 129.9 0 0 75 0 225 129.9 300 259.81 225"/><polygon class="cls-3" points="259.81 225 259.81 75 129.9 0 129.9 300 259.81 225"/><polygon class="cls-4" points="259.81 225 129.9 149.3 0 225 129.9 300 259.81 225"/><path class="cls-5" d="M129.71,70.15c-.41,0-.81,0-1.22,0A135.11,135.11,0,0,0,55.85,91.74c.1,20.29,4.6,108.92,73.86,138.09h0c68.86-29,73.71-116.74,73.86-137.72C179.46,77.75,154.64,70.38,129.71,70.15Z"/><path class="cls-6" d="M129.71,70.15V229.83h0c68.86-29,73.71-116.74,73.86-137.72C179.46,77.75,154.64,70.38,129.71,70.15Z"/><path class="cls-7" d="M145.69,126.28a16.33,16.33,0,0,1-8.4,14.27l9.33,35.9H113.57l9.68-35a16.33,16.33,0,1,1,22.44-15.14Z"/><g class="cls-8"><path class="cls-9" d="M145.69,126.28a16.33,16.33,0,0,1-8.4,14.27l9.33,35.9H113.57l9.68-35a16.33,16.33,0,1,1,22.44-15.14Z"/></g><path class="cls-10" d="M128.76,86.06h1c19.45.19,38.83,5.94,57.65,17.15-.12,16.37-3.91,84.85-57.65,107.48h0c-54.06-22.76-57.56-91.94-57.64-107.78a105.51,105.51,0,0,1,56.69-16.86m0-5.33A110.45,110.45,0,0,0,69.12,98.49l-2.39,1.59V103a172.72,172.72,0,0,0,8.87,53,113.32,113.32,0,0,0,18.14,33.86,85.51,85.51,0,0,0,33.9,25.8l2.06.87,2.07-.87c24.28-10.22,41.74-30.16,51.89-59.24,8-22.78,9-44.73,9-53.11l0-3.06-2.63-1.56C170.46,87,150.17,80.94,129.76,80.75h-1Z"/><polygon id="top" class="cls-11" points="259.81 75.02 129.9 0 0 75.02 129.9 149.3 259.81 75.02"/><path class="cls-12" d="M365.75,146.91a43.62,43.62,0,0,1,10.61,2.27,30.53,30.53,0,0,1,9.14,5,24.08,24.08,0,0,1,6.44,8,24.76,24.76,0,0,1,2.42,11.25,36.36,36.36,0,0,1-2.42,13.59,25.85,25.85,0,0,1-7.51,10.29,35.46,35.46,0,0,1-12.95,6.55,67.47,67.47,0,0,1-18.84,2.31H294.15V92.4h58.57q18.43,0,28.41,7.15t10,21.53a22.62,22.62,0,0,1-7.7,17.73,26.87,26.87,0,0,1-8.07,4.88,40,40,0,0,1-9.58,2.43Zm-18-7a27.83,27.83,0,0,0,6.68-.76,13.74,13.74,0,0,0,5.36-2.54,11.94,11.94,0,0,0,3.54-4.69,17.63,17.63,0,0,0,1.27-7.11,16.36,16.36,0,0,0-1.31-6.95,11.55,11.55,0,0,0-3.62-4.53,14.88,14.88,0,0,0-5.48-2.47,30.05,30.05,0,0,0-6.91-.75H319v29.8Zm-1.43,48.63a52.38,52.38,0,0,0,8.79-.67,17.12,17.12,0,0,0,6.71-2.54,12.3,12.3,0,0,0,4.29-5.09,19.82,19.82,0,0,0,1.51-8.38,19,19,0,0,0-1.43-7.91,12.08,12.08,0,0,0-4-5,16.32,16.32,0,0,0-6.2-2.58,39.35,39.35,0,0,0-8-.76H319v32.9Z"/><path class="cls-12" d="M412.4,206.2V92.4h49.19a90.89,90.89,0,0,1,18.72,1.83,42.46,42.46,0,0,1,15.06,6.07,30.07,30.07,0,0,1,10,11.25q3.66,7,3.66,17.32A44.57,44.57,0,0,1,506,146.08a31.81,31.81,0,0,1-8.75,12.2,37.52,37.52,0,0,1-13.7,7.27,62.23,62.23,0,0,1-18,2.42H437.44V206.2Zm50.47-57.62q9.45,0,14.54-4.89t5.08-14.58a20.6,20.6,0,0,0-1.43-8.22,13.18,13.18,0,0,0-4.05-5.33,16.45,16.45,0,0,0-6.28-2.9,34.59,34.59,0,0,0-8-.87H437.44v36.79Z"/><path class="cls-12" d="M536.21,168.13a26.46,26.46,0,0,0,4.06,9.26,24.64,24.64,0,0,0,6.79,6.52,30.47,30.47,0,0,0,9.06,3.85,44.9,44.9,0,0,0,11,1.27,34.92,34.92,0,0,0,10-1.23,19.6,19.6,0,0,0,6.56-3.22,11.88,11.88,0,0,0,3.61-4.49,12.21,12.21,0,0,0,1.12-5.05,10.79,10.79,0,0,0-1.32-5.52,12.56,12.56,0,0,0-3.81-4,28,28,0,0,0-6.2-3.14q-3.69-1.4-8.54-3l-17.25-4.69q-14.77-4.37-22.6-12.4t-7.83-20.9a29.74,29.74,0,0,1,3.1-13.86,27.54,27.54,0,0,1,8.9-10.06,42.26,42.26,0,0,1,13.94-6.12,75,75,0,0,1,18.32-2.06q18.68,0,30.24,8.1t16.49,23.45l-19.71,6.75-.63-.16a21.5,21.5,0,0,0-10.85-14.82,24.58,24.58,0,0,0-7.55-2.62,43.25,43.25,0,0,0-7.27-.68,37.36,37.36,0,0,0-9.42,1,19.58,19.58,0,0,0-6.4,2.78,11.37,11.37,0,0,0-3.61,3.93,9.38,9.38,0,0,0-1.16,4.41,10.35,10.35,0,0,0,1.36,5.49,13,13,0,0,0,3.53,3.81,21.87,21.87,0,0,0,5.09,2.7q2.89,1.11,6,2.15l18.91,4.92A121.75,121.75,0,0,1,594.55,146a40.77,40.77,0,0,1,10.52,6.79,25.74,25.74,0,0,1,6.44,9.1,32,32,0,0,1-10,37.51,44.63,44.63,0,0,1-14.5,7.27,65.87,65.87,0,0,1-19.35,2.63,72.59,72.59,0,0,1-17.81-2.15,53.08,53.08,0,0,1-15.25-6.36,41.92,41.92,0,0,1-11.45-10.45,35.59,35.59,0,0,1-6.36-14.42L535.66,168Z"/><path class="cls-12" d="M705.09,182.36H654.78l-8.42,23.84H620.21L664.72,92.4h31.55l44.34,113.8h-27.1ZM662,161.85h35.77l-17.89-50.62Z"/><path class="cls-12" d="M828.74,182.36h-50.3L770,206.2H743.87l44.5-113.8h31.55l44.34,113.8h-27.1Zm-43.07-20.51h35.76l-17.88-50.62Z"/></g></g></svg>