<svg xmlns="http://www.w3.org/2000/svg" xmlns:xlink="http://www.w3.org/1999/xlink" viewBox="0 0 34.64 40"><defs><style>.cls-1{fill:url(#linear-gradient);}.cls-2{fill:url(#linear-gradient-2);}.cls-3{fill:#7eb4bf;}.cls-3,.cls-5{opacity:0.45;}.cls-4{fill:#971a44;}.cls-5{fill:#fff;}</style><linearGradient id="linear-gradient" x1="17.32" y1="40" x2="17.32" gradientUnits="userSpaceOnUse"><stop offset="0" stop-color="#fff"/><stop offset="1" stop-color="#fff"/></linearGradient><linearGradient id="linear-gradient-2" x1="25.98" y1="40" x2="25.98" gradientUnits="userSpaceOnUse"><stop offset="0" stop-color="#cbe3e8"/><stop offset="1" stop-color="#cbe3e8"/></linearGradient></defs><title>Asset 25</title><g id="Layer_2" data-name="Layer 2"><g id="Ñëîé_1" data-name="Ñëîé 1"><polygon class="cls-1" points="34.64 30 34.64 10 17.32 0 0 10 0 30 17.32 40 34.64 30"/><polygon class="cls-2" points="34.64 30 34.64 10 17.32 0 17.32 40 34.64 30"/><polygon class="cls-3" points="34.64 30 17.32 19.91 0 30 17.32 40 34.64 30"/><path id="path3110" class="cls-4" d="M17.32,4.94V25.4L26.41,20Z"/><path id="path3142" class="cls-4" d="M17.32,27.13v7.43l9.09-12.81Z"/><path class="cls-4" d="M8.23,20l6.83,4.05L13.68,11ZM17.32,4.94V25.4h0V4.94Z"/><path class="cls-4" d="M8.23,21.75,16,32.65l-.71-6.75Z"/><polygon id="top" class="cls-5" points="34.64 10 17.32 0 0 10 17.32 19.91 34.64 10"/></g></g></svg>