<svg xmlns="http://www.w3.org/2000/svg" xmlns:xlink="http://www.w3.org/1999/xlink" viewBox="0 0 482.02 591.41"><defs><style>.cls-1{fill:none;}.cls-2{fill:url(#linear-gradient);}.cls-3{fill:url(#linear-gradient-2);}.cls-4{fill:#7eb4bf;}.cls-11,.cls-4{opacity:0.45;}.cls-5{fill:#2e81ac;}.cls-6{fill:#184e72;}.cls-7{fill:#c5dde2;}.cls-8{clip-path:url(#clip-path);}.cls-9{fill:#a8ced6;}.cls-10{fill:url(#radial-gradient);}.cls-11,.cls-12{fill:#fff;}</style><linearGradient id="linear-gradient" x1="241.01" y1="442.44" x2="241.01" gradientUnits="userSpaceOnUse"><stop offset="0" stop-color="#fff"/><stop offset="1" stop-color="#fff"/></linearGradient><linearGradient id="linear-gradient-2" x1="336.8" y1="442.44" x2="336.8" gradientUnits="userSpaceOnUse"><stop offset="0" stop-color="#cbe3e8"/><stop offset="1" stop-color="#cbe3e8"/></linearGradient><clipPath id="clip-path"><rect id="SVGID" class="cls-1" x="240.73" y="10.5" width="155.46" height="329.02"/></clipPath><radialGradient id="radial-gradient" cx="240.74" cy="219.16" r="96.56" gradientUnits="userSpaceOnUse"><stop offset="0" stop-color="#2e81ac"/><stop offset="1" stop-color="#bcdbde"/></radialGradient></defs><title>Asset 2</title><g id="Layer_2" data-name="Layer 2"><g id="White_text" data-name="White text"><polygon class="cls-2" points="432.59 331.83 432.59 110.61 241.01 0 49.43 110.61 49.43 331.83 241.01 442.44 432.59 331.83"/><polygon class="cls-3" points="432.59 331.83 432.59 110.61 241.01 0 241.01 442.44 432.59 331.83"/><polygon class="cls-4" points="432.59 331.83 241.01 220.18 49.43 331.83 241.01 442.44 432.59 331.83"/><path class="cls-5" d="M240.73,103.45l-1.81,0c-54,0-93.84,23-107.12,31.87C132,165.22,138.57,295.94,240.73,339h0c101.54-42.76,108.7-172.17,108.93-203.1C314.09,114.67,277.49,103.8,240.73,103.45Z"/><path class="cls-6" d="M240.73,103.45V339h0c101.54-42.76,108.7-172.17,108.93-203.1C314.09,114.67,277.49,103.8,240.73,103.45Z"/><path class="cls-7" d="M264.29,186.23a24.06,24.06,0,0,1-12.38,21.05l13.75,53H216.91l14.29-51.66a24.08,24.08,0,1,1,33.09-22.34Z"/><g class="cls-8"><path class="cls-9" d="M264.29,186.23a24.06,24.06,0,0,1-12.38,21.05l13.75,53H216.91l14.29-51.66a24.08,24.08,0,1,1,33.09-22.34Z"/></g><path class="cls-10" d="M239.32,126.92l1.41,0c28.69.27,57.25,8.76,85,25.29-.17,24.14-5.76,125.14-85,158.51h0c-79.73-33.57-84.9-135.59-85-159a155.52,155.52,0,0,1,83.6-24.87m0-7.86a162.89,162.89,0,0,0-87.95,26.19l-3.53,2.34,0,4.24c.06,12.3,1.45,44.52,13.08,78.17,6.65,19.22,15.64,36,26.75,49.93a126.11,126.11,0,0,0,50,38.05l3,1.28,3.05-1.28a126.06,126.06,0,0,0,49.77-37.77c11.09-13.82,20.09-30.5,26.76-49.6,11.72-33.59,13.2-66,13.29-78.33l0-4.5-3.87-2.3c-28.93-17.23-58.86-26.11-89-26.39h-.5l-1,0Z"/><polygon id="top" class="cls-11" points="432.59 110.64 241.01 0 49.43 110.64 241.01 220.18 432.59 110.64"/><path class="cls-12" d="M60.54,538.67a36.77,36.77,0,0,1,9,1.91,25.71,25.71,0,0,1,7.72,4.24,20.17,20.17,0,0,1,5.45,6.78,21,21,0,0,1,2,9.51,30.78,30.78,0,0,1-2,11.49,21.9,21.9,0,0,1-6.35,8.7,30,30,0,0,1-11,5.54,57.15,57.15,0,0,1-15.93,1.95H0V492.58H49.52q15.58,0,24,6T82,516.83a19.11,19.11,0,0,1-6.52,15A22.53,22.53,0,0,1,68.63,536a34.18,34.18,0,0,1-8.09,2Zm-15.25-5.92a24.12,24.12,0,0,0,5.64-.63A11.75,11.75,0,0,0,55.46,530a10.13,10.13,0,0,0,3-4,15.06,15.06,0,0,0,1.07-6,13.9,13.9,0,0,0-1.11-5.88,9.79,9.79,0,0,0-3.06-3.83,12.5,12.5,0,0,0-4.63-2.08,25,25,0,0,0-5.85-.64H21v25.19Zm-1.21,41.12a44.14,44.14,0,0,0,7.42-.57,14.33,14.33,0,0,0,5.68-2.15,10.28,10.28,0,0,0,3.63-4.3,16.77,16.77,0,0,0,1.27-7.08,16.1,16.1,0,0,0-1.21-6.69,10.1,10.1,0,0,0-3.39-4.2,13.79,13.79,0,0,0-5.24-2.18,32.79,32.79,0,0,0-6.75-.64H21v27.81Z"/><path class="cls-12" d="M100,588.79V492.58h41.59a76.92,76.92,0,0,1,15.82,1.54,36,36,0,0,1,12.73,5.14,25.35,25.35,0,0,1,8.47,9.51q3.09,5.91,3.09,14.65A37.53,37.53,0,0,1,179.09,538a26.76,26.76,0,0,1-7.39,10.31,31.46,31.46,0,0,1-11.59,6.15,52.25,52.25,0,0,1-15.18,2.05H121.14v32.32Zm42.66-48.71q8,0,12.3-4.13t4.3-12.33a17.47,17.47,0,0,0-1.21-7,11.19,11.19,0,0,0-3.43-4.5,13.71,13.71,0,0,0-5.3-2.45,29.37,29.37,0,0,0-6.79-.74H121.14v31.11Z"/><path class="cls-12" d="M204.66,556.61a22.5,22.5,0,0,0,3.43,7.83,20.59,20.59,0,0,0,5.74,5.5,25.35,25.35,0,0,0,7.66,3.26,37.88,37.88,0,0,0,9.31,1.08,29.59,29.59,0,0,0,8.46-1,16.81,16.81,0,0,0,5.55-2.72,10.06,10.06,0,0,0,3.05-3.8,10.36,10.36,0,0,0,.94-4.27,9.2,9.2,0,0,0-1.11-4.67,10.73,10.73,0,0,0-3.22-3.39,23.46,23.46,0,0,0-5.24-2.65q-3.12-1.18-7.22-2.52l-14.58-4q-12.51-3.69-19.12-10.48t-6.62-17.67a25.34,25.34,0,0,1,2.62-11.73,23.34,23.34,0,0,1,7.53-8.49,35.74,35.74,0,0,1,11.79-5.18A63.29,63.29,0,0,1,229.12,490q15.78,0,25.56,6.86t13.94,19.82L252,522.34l-.54-.13a18.05,18.05,0,0,0-9.17-12.54,21,21,0,0,0-6.38-2.21,36.63,36.63,0,0,0-6.15-.57,31.8,31.8,0,0,0-8,.87,16.66,16.66,0,0,0-5.41,2.35,9.74,9.74,0,0,0-3.06,3.33,7.89,7.89,0,0,0-1,3.73,8.78,8.78,0,0,0,1.14,4.63,11.06,11.06,0,0,0,3,3.23,18.6,18.6,0,0,0,4.3,2.28c1.64.63,3.33,1.23,5.07,1.82l16,4.16a104.43,104.43,0,0,1,12.16,4.6,34.5,34.5,0,0,1,8.9,5.75,21.65,21.65,0,0,1,5.44,7.69,29.08,29.08,0,0,1-.8,22.34,26.6,26.6,0,0,1-7.7,9.38,37.5,37.5,0,0,1-12.26,6.14,55.67,55.67,0,0,1-16.36,2.22,61.25,61.25,0,0,1-15-1.81,44.94,44.94,0,0,1-12.9-5.38,35.54,35.54,0,0,1-9.68-8.83,30,30,0,0,1-5.37-12.2l16-6.72Z"/><path class="cls-12" d="M347.44,568.63H304.91l-7.12,20.16H275.68l37.63-96.21H340l37.49,96.21H354.56ZM311,551.3h30.24l-15.12-42.8Z"/><path class="cls-12" d="M452,568.63H409.45l-7.12,20.16h-22.1l37.62-96.21h26.68L482,588.79H459.11ZM415.57,551.3H445.8l-15.11-42.8Z"/></g></g></svg>